<svg xmlns="http://www.w3.org/2000/svg" viewBox="0 0 280 280" role="img" aria-label="Panda mascot - charm"><title>Panda mascot</title>
  <defs>
    <radialGradient id="panda-body" cx="0.5" cy="0.4" r="0.7">
      <stop offset="0%" stop-color="#fdfdfd"/>
      <stop offset="100%" stop-color="#d8d8d8"/>
    </radialGradient>
  </defs>
  <ellipse cx="140" cy="200" rx="78" ry="60" fill="#ffffff" stroke="#1a1a2e" stroke-width="2"/>
  <ellipse cx="140" cy="210" rx="46" ry="40" fill="#1a1a2e"/>
  <ellipse cx="68" cy="170" rx="20" ry="36" fill="#1a1a2e" transform="rotate(-30 68 170)"/>
  <ellipse cx="212" cy="170" rx="20" ry="36" fill="#1a1a2e" transform="rotate(30 212 170)"/>
  <ellipse cx="48" cy="138" rx="16" ry="20" fill="#1a1a2e" transform="rotate(-50 48 138)"/>
  <ellipse cx="232" cy="138" rx="16" ry="20" fill="#1a1a2e" transform="rotate(50 232 138)"/>
  <ellipse cx="110" cy="252" rx="22" ry="14" fill="#1a1a2e"/>
  <ellipse cx="170" cy="252" rx="22" ry="14" fill="#1a1a2e"/>
  <ellipse cx="110" cy="252" rx="12" ry="8" fill="#fff"/>
  <ellipse cx="170" cy="252" rx="12" ry="8" fill="#fff"/>
  <circle cx="140" cy="110" r="68" fill="url(#panda-body)" stroke="#1a1a2e" stroke-width="2"/>
  <circle cx="88" cy="64" r="20" fill="#1a1a2e"/>
  <circle cx="192" cy="64" r="20" fill="#1a1a2e"/>
  <circle cx="88" cy="68" r="10" fill="#ff9eb1"/>
  <circle cx="192" cy="68" r="10" fill="#ff9eb1"/>
  <ellipse cx="112" cy="106" rx="20" ry="26" fill="#1a1a2e" transform="rotate(-15 112 106)"/>
  <ellipse cx="168" cy="106" rx="20" ry="26" fill="#1a1a2e" transform="rotate(15 168 106)"/>
  <circle cx="115" cy="108" r="11" fill="#fff"/>
  <circle cx="165" cy="108" r="11" fill="#fff"/>
  <circle cx="115" cy="108" r="6" fill="#1a1a2e"/>
  <circle cx="165" cy="108" r="6" fill="#1a1a2e"/>
  <circle cx="118" cy="105" r="2" fill="#fff"/>
  <circle cx="168" cy="105" r="2" fill="#fff"/>
  <ellipse cx="140" cy="130" rx="7" ry="5" fill="#1a1a2e"/>
  <path d="M140 135 Q 130 146 124 142 M140 135 Q 150 146 156 142" stroke="#1a1a2e" stroke-width="2" fill="none" stroke-linecap="round"/>
  <path d="M140 140 L 140 148" stroke="#1a1a2e" stroke-width="2"/>
  <circle cx="98" cy="138" r="10" fill="#ff9eb1" opacity="0.7"/>
  <circle cx="182" cy="138" r="10" fill="#ff9eb1" opacity="0.7"/>
  <g transform="translate(220 30)">
    <path d="M0 8 c -6 -8 -16 0 -8 8 c 4 4 8 8 8 8 c 0 0 4 -4 8 -8 c 8 -8 -2 -16 -8 -8 z" fill="#ff5577"/>
  </g>
</svg>
